<?xml version="1.0" encoding="UTF-8" standalone="no"?>
<!-- Created with Inkscape (http://www.inkscape.org/) -->

<svg
   xmlns:svg="http://www.w3.org/2000/svg"
   xmlns="http://www.w3.org/2000/svg"
   version="1.1"
   width="180"
   height="252"
   viewBox="0 0 180 252"
   id="svg2"
   xml:space="preserve"><defs
   id="defs31" />
<g
   id="Calque_1">
</g>
<g
   id="Calque_2">
	<path
   d="m 69.527,191.055 c -0.701,-0.242 -1.818,-1.299 -2.333,-1.833 -0.394,-0.408 -1.212,-1.279 -1.333,-1.833 -0.137,-0.623 0.563,-1.866 0.5,-2.5 -0.053,-0.539 -0.607,-1.508 -0.833,-2 -0.388,-0.848 -1.453,-2.427 -1.667,-3.334 -0.354,-1.501 0,-5.666 0.167,-6.166 0.167,-0.5 4.116,-8.323 5.667,-11 1.981,-3.421 6.08,-10.207 8.5,-13.334 1.01,-1.306 3.458,-3.553 4.5,-4.833 1,-1.229 2.344,-4.296 3.667,-5.167 0.499,-0.328 1.778,-0.281 2.333,-0.5 0.626,-0.247 1.667,-1 2.5,-1 0.833,0 2.5,-1.667 3,-2 0.5,-0.333 1.166,-2.166 1.5,-2.833 0.333,-0.667 0.193,-2.275 0,-3 -0.344,-1.286 -1.668,-4.167 -1.834,-5 -0.166,-0.833 -3.092,-16.484 -4,-22 -0.185,-1.122 -0.409,-3.393 -0.667,-4.5 -0.278,-1.194 -0.885,-3.607 -1.5,-4.667 -0.651,-1.123 -2.993,-2.639 -3.5,-3.833 -0.261,-0.615 -0.471,-2.072 -0.167,-2.667 0.606,-1.183 3.333,-2.197 4.5,-2.833 0.707,-0.385 2.5,-1.167 3,-1.167 0.5,0 2.207,-0.674 2.833,-0.333 1.049,0.57 1.532,3.236 2,4.333 0.544,1.274 -0.083,3.5 0.084,4 0.166,0.5 1.838,3.99 2,5.125 0.111,0.785 1.139,2.757 1.25,3.542 0.338,2.401 2.646,6.798 3.166,9.167 0.449,2.045 0.672,6.246 0.834,8.333 0.174,2.247 0.738,6.759 0.5,9 -0.184,1.719 -1.186,5.064 -1.834,6.667 -0.195,0.483 -0.856,1.331 -1,1.833 -0.205,0.723 -0.282,2.258 -0.166,3 0.233,1.499 2.121,4.15 2.166,5.667 0.162,5.281 -4.354,15.267 -6.333,20.166 -1.361,3.369 -4.939,9.719 -6.5,13 -0.609,1.28 -1.331,4.165 -2.333,5.167 -0.805,0.804 -3.333,1.5 -4.167,1.833 -0.834,0.333 -2.498,1.612 -3.167,2.333 -0.669,0.721 -1.575,2.54 -2.333,3.167 -0.89,0.737 -3.041,1.743 -4.167,2 -1.178,0.269 -3.691,0.395 -4.833,0 z"
   id="path6"
   style="fill:#231f20;fill-rule:evenodd;stroke:#231f20;stroke-miterlimit:10" />
	<path
   d="m 95.36,81.555 c 2.047,0.567 6.516,0.567 8.334,1.667 2.891,1.748 6.211,8.016 8.5,10.5 1.816,1.972 7.5,7.167 7.5,7.667 0,0.5 -0.834,4.833 -0.834,5.333 0,0.5 -0.531,2.062 0,2.167 0.973,0.191 1.271,-2.704 1.5,-3.667 0.242,-1.016 0.572,-3.149 0.334,-4.167 -0.303,-1.288 -2.5,-4.167 -2.5,-4.667 0,-0.5 -3.463,-3.91 -4.668,-5.167 -1.447,-1.511 -4.141,-4.731 -5.666,-6.167 -1.057,-0.995 -3.205,-3.012 -4.5,-3.667 -1.29,-0.653 -5.166,-1.334 -5.666,-1.167 -0.5,0.167 -4.513,-0.663 -4.667,0.5 -0.081,0.616 1.735,0.67 2.333,0.835 z"
   id="path8"
   style="fill:#231f20;fill-rule:evenodd;stroke:#231f20;stroke-miterlimit:10" />
	<path
   d="m 92.36,82.055 c 1.229,-0.229 1.842,-3.531 3,-4 1.956,-0.791 6.241,1.062 8.334,1.333 0.416,0.054 1.252,0.232 1.666,0.167 1.125,-0.179 3.137,-1.35 4.166,-1.833 1.688,-0.792 4.943,-2.627 6.668,-3.333 1.5,-0.614 4.57,-1.723 6.166,-2 1.355,-0.235 4.125,-0.168 5.5,-0.167 1.293,0.001 3.883,0.314 5.166,0.167 1.928,-0.221 5.752,-1.159 7.5,-2 1.084,-0.521 4.053,-1.466 4,-2.667 -0.023,-0.521 -4.441,1.002 -4.957,1.083 -2.375,0.375 -4.25,0.75 -6.125,0.875 -0.705,0.047 -8.25,1.042 -9.084,1.208 -0.834,0.166 -4.334,0 -4.834,0.167 -0.5,0.167 -3.678,1.254 -4.832,1.833 -1.023,0.513 -3.166,2 -3.834,2.5 -0.666,0.5 -5.334,2.666 -5.834,2.833 -0.5,0.167 -7.832,-0.833 -8.499,-1 -0.667,-0.167 -2.634,-0.794 -3.333,-0.333 -0.518,0.341 -0.557,1.779 -0.834,2.333 -0.27,0.537 -1.459,1.413 -1.333,2 0.082,0.385 0.946,0.906 1.333,0.834 z"
   id="path10"
   style="fill:#231f20;fill-rule:evenodd;stroke:#231f20;stroke-miterlimit:10" />
	<path
   d="M 82.36,88.055"
   id="path12"
   style="fill:none;stroke:#231f20;stroke-miterlimit:10" />
	<path
   d="m 91.527,83.055 c 0.545,-0.599 -0.846,-2.379 -0.667,-3.169 0.394,-1.739 2.792,-4.77 4.334,-5.667 1.6,-0.93 5.52,-0.628 7.333,-1 2.921,-0.599 8.722,-2.082 11.499,-3.167 2.707,-1.058 8.197,-3.363 10.334,-5.333 1.156,-1.065 2.564,-3.962 3.334,-5.333 0.363,-0.65 1.926,-2.216 1.332,-2.667 -1.434,-1.087 -3.959,3.671 -5.332,4.833 -1.541,1.303 -4.547,4.065 -6.334,5 -1.775,0.929 -5.744,1.767 -7.666,2.333 -1.164,0.343 -3.463,1.178 -4.668,1.333 -1.9,0.246 -5.779,-0.509 -7.666,-0.167 -1.104,0.2 -3.271,0.991 -4.166,1.667 -1.025,0.773 -2.834,3.667 -3,4.167 -0.166,0.5 -0.874,3.231 -0.833,4.333 0.025,0.687 0.15,2.214 0.667,2.667 0.283,0.249 1.245,0.449 1.499,0.17 z"
   id="path14"
   style="fill:#231f20;fill-rule:evenodd;stroke:#231f20;stroke-miterlimit:10" />
	<path
   d="m 88.86,82.886 c 1.212,-1.837 -1.747,-6.419 -2.833,-8.333 -0.54,-0.951 -1.856,-2.842 -2.833,-3.333 -1.716,-0.862 -5.76,-0.733 -7.667,-0.5 -2.041,0.25 -6.041,1.494 -7.833,2.5 -1.442,0.81 -3.875,3.121 -5,4.333 -1.51,1.626 -4.833,6.5 -5.667,6.833 -0.834,0.333 -6.167,2.833 -7,3.167 -0.833,0.334 -7.679,-0.862 -7.708,0.503 -0.012,0.556 3.987,1.202 4.542,1.164 1.985,-0.136 7,-2.667 7.5,-2.667 0.5,0 3.5,-1.333 4.333,-1.667 0.833,-0.334 4,-4.5 4.667,-5 0.667,-0.5 4.219,-3.613 5.833,-4.5 0.97,-0.533 3.087,-1.255 4.167,-1.5 1.225,-0.277 3.746,-0.568 5,-0.5 0.921,0.05 3.167,0.667 3.5,1.167 0.333,0.5 2.938,3.761 3.667,5.167 0.406,0.783 0.428,2.85 1.167,3.333 0.453,0.296 1.866,0.286 2.165,-0.167 z"
   id="path16"
   style="fill:#231f20;fill-rule:evenodd;stroke:#231f20;stroke-miterlimit:10" />
	<path
   d="m 86.36,84.552 c -0.232,-0.591 -1.711,-0.873 -2.333,-1 -0.939,-0.193 -2.875,0.032 -3.833,0 -1.252,-0.042 -3.756,-0.186 -5,-0.333 -1.469,-0.174 -4.52,-0.32 -5.833,-1 -0.785,-0.406 -1.831,-1.923 -2.5,-2.5 -1.188,-1.024 -4.5,-3.333 -4.833,-4 -0.333,-0.667 -5.664,-3.618 -7.833,-3.833 -2.073,-0.206 -6.345,0.655 -8.167,1.667 -0.953,0.529 -6.384,5.561 -5.833,6.503 0.52,0.89 5.283,-4.643 6.25,-5 1.001,-0.371 4.208,-1.542 4.875,-1.375 0.667,0.167 3.362,0.276 4.542,0.539 1.237,0.275 3.457,1.613 4.5,2.333 0.975,0.673 3.167,2.833 3.667,3 0.5,0.167 2.5,3.334 3,3.667 0.5,0.333 2.401,1.644 3.333,1.833 1.435,0.292 4.375,-0.616 5.833,-0.5 1.019,0.081 3.333,0.833 4,0.833 0.667,0 2.13,-0.086 2.833,0 0.682,0.084 2.049,0.968 2.667,0.667 0.367,-0.181 0.815,-1.119 0.665,-1.501 z"
   id="path18"
   style="fill:#231f20;fill-rule:evenodd;stroke:#231f20;stroke-miterlimit:10" />
	<path
   d="m 88.36,84.514 c 0.098,-0.401 -0.81,-0.96 -1.167,-1.167 -1.942,-1.124 -6.433,-2.121 -8.667,-2.333 -1.706,-0.163 -5.24,-0.129 -6.833,0.5 -1.295,0.512 -3.387,2.479 -4.333,3.5 -1.147,1.237 -3.333,4.833 -3.667,5.667 -0.334,0.834 -2.167,2.667 -2.833,3 -0.666,0.333 -3.833,1.167 -4.667,1.5 -0.834,0.333 -5.738,1.789 -7.667,2.333 -0.914,0.258 -3.793,0.059 -3.667,1 0.166,1.239 3.833,0 5,-0.167 1.167,-0.167 8.157,-2.274 10.833,-3.167 0.712,-0.238 2.333,-0.833 2.833,-1 0.5,-0.167 2.706,-2.935 3.5,-4 0.732,-0.983 2.003,-3.098 2.833,-4 0.701,-0.762 2.194,-2.312 3.167,-2.667 0.626,-0.229 2,0 2.667,0 1,0 3,-0.034 4,0 1.21,0.042 4.007,-0.553 4.833,0.333 0.207,0.222 0,0.667 0.333,1.167 0.333,0.5 3.291,0.359 3.502,-0.499 z"
   id="path20"
   style="fill:#231f20;fill-rule:evenodd;stroke:#231f20;stroke-miterlimit:10" />
	<path
   d="m 85.693,86.052 c -1.307,-1.43 -5.811,1.303 -7.333,2.5 -1.467,1.153 -3.5,5.5 -3.667,6.5 -0.167,1 -1.732,4.188 -2,5.667 -0.468,2.588 -0.256,7.125 0,7.586 1.25,2.25 6.342,6.632 7.5,5.247 0.275,-0.329 -0.545,-1.183 -0.833,-1.5 -0.544,-0.598 -2.077,-1.28 -2.667,-1.833 -0.541,-0.508 -1.561,-1.644 -1.833,-2.333 -0.398,-1.007 -0.333,-3.833 0,-4.333 0.333,-0.5 1.098,-3.883 1.5,-5.167 0.387,-1.233 1.256,-3.677 1.833,-4.833 0.418,-0.837 1.331,-2.512 2,-3.167 0.521,-0.509 1.789,-1.34 2.5,-1.5 0.408,-0.092 1.305,0.377 1.667,0.167 0.709,-0.413 1.887,-2.395 1.333,-3.001 z"
   id="path22"
   style="fill:#231f20;fill-rule:evenodd;stroke:#231f20;stroke-miterlimit:10" />
	<path
   d="m 88.027,83.055 c -0.095,-2.29 -0.636,-6.965 0,-9.167 0.629,-2.176 3.485,-5.846 4.833,-7.667 1.229,-1.661 4.166,-4.833 5.5,-6.167 1.334,-1.334 4.334,-5.667 5.334,-8 1,-2.333 0.795,-10.383 3.332,-9.833 0.859,0.186 -0.332,2.667 -0.332,3.5 0,0.833 -1,5.333 -1.334,6 -0.334,0.667 -2.168,3 -2.334,4 -0.166,1 -2.666,5.5 -3.332,6.167 -0.667,0.667 -4.501,3.5 -4.834,4.333 -0.333,0.833 -2.667,4.167 -3,5.167 -0.333,1 -2,3.328 -1.667,4.497 0.333,1.169 0.333,5.17 0.333,6.003 0,0.833 0.317,2.314 -0.167,2.833 -0.374,0.401 -1.736,0.673 -2.167,0.333 -0.393,-0.309 -0.144,-1.497 -0.165,-1.999 z"
   id="path24"
   style="fill:#231f20;fill-rule:evenodd;stroke:#231f20;stroke-miterlimit:10" />
	<path
   d="m 92.36,82.055 c 1.916,1.649 7.475,-1.398 10,-1.5 2.006,-0.081 7.334,0.5 8,0.667 0.666,0.167 7.166,2.333 7.666,2.833 0.5,0.5 8.998,5.033 11.334,7.5 0.693,0.732 1.701,2.538 2,3.5 0.15,0.479 -0.334,1.958 0.166,2 1.158,0.099 1.344,-3.351 1.168,-4.5 -0.119,-0.777 -1.109,-2.113 -1.668,-2.667 -1.076,-1.066 -3.902,-2.33 -5.166,-3.167 -1.195,-0.792 -3.445,-2.582 -4.666,-3.333 -0.842,-0.518 -2.594,-1.443 -3.5,-1.833 -1.646,-0.708 -6.334,-2.167 -6.834,-2.167 -0.5,0 -5.377,-0.097 -7.166,0 -1.926,0.104 -5.766,0.515 -7.667,0.833 -0.927,0.155 -3.081,0.098 -3.667,0.833 -0.156,0.196 -0.19,0.838 0,1.001 z"
   id="path26"
   style="fill:#231f20;fill-rule:evenodd;stroke:#231f20;stroke-miterlimit:10" />
</g>
<g
   id="Calque_3">
</g>
</svg>