<?xml version="1.0" encoding="UTF-8" standalone="no"?>
<!-- Created with Inkscape (http://www.inkscape.org/) -->

<svg
   xmlns:svg="http://www.w3.org/2000/svg"
   xmlns="http://www.w3.org/2000/svg"
   version="1.1"
   width="180"
   height="252"
   viewBox="0 0 180 252"
   id="svg2"
   xml:space="preserve"><defs
   id="defs79" />
<g
   id="Calque_1">
</g>
<g
   id="Calque_2">
</g>
<g
   id="Calque_3">
	<path
   d="m 88.948,85.648 c 0.013,0.037 0.014,0.095 0.039,0.109 1.664,0.993 1.818,2.59 1.948,4.334 0.352,4.698 0.86,9.386 1.308,14.077 0.022,0.227 0.055,0.453 0.305,0.704 0.162,-0.994 0.36,-1.985 0.474,-2.985 0.092,-0.803 0.418,-1.165 1.14,-0.936 0.314,2.545 0.639,5.055 0.931,7.569 0.289,2.483 0.545,4.972 0.815,7.457 0.157,-0.011 0.314,-0.021 0.473,-0.032 0.041,-0.568 0.117,-1.136 0.118,-1.704 0.012,-7.455 0.455,-14.884 1.427,-22.275 0.087,-0.664 0.52,-1.282 0.823,-1.993 1.231,0.665 1.585,1.457 1.601,2.536 0.068,4.634 0.187,9.267 0.289,13.899 0.006,0.296 0.038,0.591 0.234,0.907 0.706,-1.689 1.405,-3.382 2.122,-5.067 0.749,-1.762 0.756,-1.758 2.691,-1.507 -1.586,5.416 -3.174,10.837 -4.761,16.257 0.128,0.047 0.256,0.094 0.385,0.142 0.172,-0.367 0.355,-0.729 0.514,-1.102 2.347,-5.523 4.648,-11.068 7.051,-16.568 1.532,-3.505 3.187,-6.956 4.84,-10.405 0.522,-1.089 1.199,-2.12 2.614,-2.415 0.409,0.998 0.531,1.957 0.11,3.041 -2.226,5.743 -4.378,11.514 -6.604,17.256 -0.489,1.261 -1.176,2.446 -1.557,3.804 0.963,-0.856 1.926,-1.714 2.933,-2.609 0.279,1.854 -0.44,4.062 -1.729,5.49 -0.232,0.259 -0.534,0.507 -0.643,0.814 -0.718,2.04 -2.087,3.606 -3.583,5.093 -0.094,0.094 -0.125,0.253 -0.188,0.389 0.129,0.045 0.218,0.105 0.252,0.083 3.427,-2.259 6.782,-4.63 10.29,-6.754 2.631,-1.592 5.462,-2.854 8.191,-4.285 1.012,-0.532 1.973,-1.159 2.986,-1.686 0.438,-0.227 0.941,-0.353 1.43,-0.444 1.098,-0.207 1.721,0.258 1.828,1.731 -6.512,4.338 -13.164,8.77 -19.944,13.287 1.681,-0.631 3.224,-1.274 4.808,-1.796 7.287,-2.4 14.578,-4.787 21.891,-7.111 0.678,-0.217 1.506,0.039 2.265,0.075 0.049,0.137 0.099,0.272 0.147,0.408 -0.961,0.689 -1.831,1.605 -2.896,2.031 -5.657,2.255 -11.362,4.387 -17.051,6.562 -0.172,0.065 -0.342,0.136 -0.469,0.396 3.08,-0.396 6.168,-0.747 9.241,-1.195 4.348,-0.633 8.684,-1.344 13.026,-2.004 0.585,-0.089 1.186,-0.055 1.776,-0.106 0.801,-0.069 1.063,0.313 0.961,1.114 -10.68,2.278 -21.352,4.556 -32.166,6.864 0.831,0.256 1.639,0.562 2.475,0.75 6.255,1.408 12.539,2.691 18.765,4.215 5.146,1.26 10.221,2.807 15.334,4.201 0.893,0.244 1.099,1.223 0.846,1.535 -0.409,0.502 -1.312,0.928 -1.952,0.859 -1.482,-0.16 -2.924,-0.676 -4.397,-0.973 -8.259,-1.672 -16.521,-3.324 -24.786,-4.975 -3.215,-0.643 -6.436,-1.258 -9.656,-1.885 -0.283,0.5 -0.513,0.904 -0.822,1.451 11.036,6.803 21.78,13.969 32.006,21.883 -0.055,0.127 -0.11,0.254 -0.166,0.381 -1.366,-0.449 -2.784,-0.783 -4.088,-1.373 -2.373,-1.074 -4.743,-2.189 -6.993,-3.496 -2.111,-1.227 -4.02,-2.797 -6.099,-4.086 -3.894,-2.416 -7.835,-4.756 -11.778,-7.09 -1.622,-0.959 -3.297,-1.834 -4.965,-2.713 -0.324,-0.172 -0.734,-0.182 -1.104,-0.264 -0.055,0.139 -0.108,0.279 -0.163,0.42 3.765,3.326 7.531,6.654 11.296,9.98 -0.823,0.959 -1.941,1.01 -3.293,0.102 -1.825,-1.227 -3.64,-2.469 -5.614,-3.578 0.539,0.754 1.091,1.498 1.614,2.26 1.852,2.699 3.551,5.52 5.589,8.068 1.431,1.791 1.753,3.898 2.656,5.887 -1.39,0.502 -2.295,-0.086 -2.99,-0.998 -2.632,-3.455 -5.235,-6.932 -7.824,-10.416 -2.205,-2.969 -4.376,-5.963 -6.57,-8.941 -0.054,-0.074 -0.195,-0.084 -0.495,-0.201 0.031,0.547 0.033,0.986 0.086,1.422 0.282,2.316 0.613,4.629 0.842,6.951 0.057,0.568 -0.206,1.17 -0.323,1.756 -0.149,0.033 -0.299,0.066 -0.447,0.1 -0.341,-0.613 -0.846,-1.188 -0.994,-1.844 -0.499,-2.197 -0.869,-4.424 -1.294,-6.639 -0.075,-0.387 -0.182,-0.768 -0.273,-1.15 -0.119,0.012 -0.239,0.023 -0.358,0.035 -0.025,0.402 -0.071,0.803 -0.071,1.205 -0.007,2.852 -0.12,5.711 0.037,8.555 0.104,1.865 -0.417,3.291 -1.962,4.418 -0.767,-0.396 -1.125,-1.053 -1.157,-2.031 -0.124,-3.758 -0.309,-7.516 -0.497,-11.273 -0.015,-0.299 -0.225,-0.588 -0.345,-0.883 -0.195,0.277 -0.52,0.535 -0.562,0.834 -0.19,1.332 -0.425,2.676 -0.41,4.014 0.022,2.061 -1.031,3.543 -2.494,5.207 -0.257,-0.799 -0.568,-1.445 -0.651,-2.121 -0.087,-0.717 0.043,-1.463 0.086,-2.385 -1.194,2.41 -2.296,4.639 -3.382,6.83 -1.797,-0.539 -2.334,-1.627 -1.705,-3.191 0.765,-1.9 1.575,-3.781 2.171,-5.789 -0.812,1.158 -1.566,2.367 -2.45,3.467 -2.689,3.346 -5.413,6.664 -8.18,9.947 -0.214,0.252 -0.903,0.271 -1.295,0.15 -0.236,-0.074 -0.483,-0.645 -0.452,-0.963 0.209,-2.209 1.954,-3.549 3.095,-5.223 0.875,-1.287 1.91,-2.465 2.874,-3.691 -0.077,-0.064 -0.155,-0.129 -0.233,-0.193 -1.062,1.146 -2.146,2.271 -3.184,3.441 -2.752,3.104 -5.475,6.234 -8.231,9.334 -0.887,1 -1.828,1.953 -2.771,2.9 -0.863,0.865 -1.966,0.732 -3.174,0.822 3.881,-6.713 8.998,-12.248 13.414,-18.318 -1.308,0.977 -2.631,1.934 -3.922,2.934 -2.781,2.156 -5.539,4.342 -8.32,6.5 -0.745,0.578 -1.479,1.227 -2.325,1.607 -0.676,0.305 -1.512,0.254 -2.312,0.365 -0.315,-1.293 -0.198,-2.191 0.836,-3.041 4.121,-3.385 8.137,-6.9 12.252,-10.291 3.288,-2.707 6.665,-5.309 10.003,-7.957 -0.04,-0.104 -0.08,-0.207 -0.12,-0.311 -0.289,0.061 -0.602,0.07 -0.866,0.188 -3.726,1.65 -7.433,3.34 -11.167,4.967 -3.298,1.434 -6.586,2.908 -9.958,4.148 -1.44,0.529 -3.082,0.508 -4.653,0.74 0.057,-2.201 0.465,-2.701 2.403,-3.506 2.772,-1.154 5.517,-2.375 8.271,-3.574 0.212,-0.092 0.404,-0.229 0.562,-0.477 -1.98,0.506 -3.968,0.984 -5.938,1.525 -5.839,1.6 -11.666,3.244 -17.513,4.814 -0.64,0.172 -1.379,-0.023 -2.168,-0.053 0.331,-1.461 0.89,-2.213 2.107,-2.625 4.684,-1.584 9.295,-3.379 13.996,-4.902 6.808,-2.207 13.671,-4.246 20.511,-6.357 0.605,-0.186 1.234,-0.312 1.811,-0.566 0.415,-0.182 0.758,-0.527 1.134,-0.799 -0.396,-0.178 -0.775,-0.461 -1.188,-0.518 -3.137,-0.441 -6.28,-0.838 -9.421,-1.25 -5.574,-0.73 -11.15,-1.445 -16.72,-2.213 -0.718,-0.099 -1.396,-0.475 -2.207,-0.763 0.928,-1.159 1.851,-1.662 3.309,-1.508 4.765,0.505 9.546,0.86 14.322,1.232 0.34,0.026 0.701,-0.285 1.058,-0.426 0.34,-0.134 0.692,-0.369 1.03,-0.353 1.851,0.09 3.7,0.242 5.549,0.374 0.231,0.017 0.462,0.038 0.894,0.073 -3.414,-3.371 -7.888,-5.345 -10.636,-9.56 1.502,-0.218 2.491,-0.104 3.521,0.533 4.269,2.638 8.594,5.183 12.983,7.813 0.476,-0.397 0.952,-0.793 1.567,-1.306 -2.506,-2.675 -4.951,-5.285 -7.396,-7.897 -0.136,-0.145 -0.272,-0.287 -0.404,-0.435 -2.735,-3.066 -5.469,-6.137 -8.208,-9.2 -1.942,-2.173 -3.915,-4.317 -5.824,-6.518 -0.581,-0.67 -0.993,-1.484 -1.545,-2.328 1.691,-0.22 3.014,-0.191 4.203,1.139 2.051,2.294 4.312,4.399 6.469,6.598 3.231,3.296 6.441,6.611 9.681,9.899 0.742,0.754 1.562,1.431 2.51,2.068 -0.581,-1.087 -1.169,-2.172 -1.743,-3.265 -1.003,-1.91 -2.133,-3.768 -2.954,-5.754 -0.728,-1.759 -0.462,-2.031 1.641,-2.688 1.554,2.299 3.152,4.663 4.875,7.209 -0.44,-1.36 -0.826,-2.534 -1.199,-3.714 -0.705,-2.227 -1.384,-4.462 -2.106,-6.683 -0.534,-1.641 -1.157,-3.255 -1.662,-4.904 -0.138,-0.45 -0.132,-1.05 0.059,-1.465 0.173,-0.376 0.656,-0.737 1.064,-0.83 0.267,-0.061 0.812,0.296 0.946,0.594 1.255,2.773 2.518,5.548 3.642,8.375 1.423,3.579 2.72,7.208 4.281,10.827 0,-2.571 0.111,-5.149 -0.023,-7.714 -0.239,-4.548 -0.573,-9.093 -0.985,-13.629 -0.109,-1.197 0.084,-2.242 0.545,-3.294 0.068,0.005 0.147,0.005 0.226,0.005 z m -7.109,35.284 c 1.149,0.792 2.115,1.645 3.232,2.182 1.479,0.711 2.466,1.779 3.196,3.192 0.468,0.903 0.302,1.641 -0.62,2.118 -0.959,0.496 -1.91,0.438 -2.805,-0.176 -0.751,-0.516 -1.479,-1.064 -2.241,-1.564 -0.24,-0.156 -0.591,-0.32 -0.838,-0.26 -0.752,0.18 -1.478,0.467 -2.214,0.713 1.596,0.162 3.152,0.436 3.518,2.318 0.345,1.779 -1.398,1.938 -2.571,2.873 0.565,0.701 1.117,1.387 1.606,1.994 1.012,-0.801 1.737,-1.598 2.639,-2.018 0.745,-0.348 1.904,-0.609 2.505,-0.262 0.737,0.428 1.074,1.516 0.527,2.535 -0.477,0.887 -0.901,1.803 -1.35,2.707 1.065,0.855 1.065,0.855 3.219,-1.064 0.711,0.654 1.425,1.311 2.188,2.016 0.448,-1.162 0.122,-2.578 1.682,-2.703 1.196,-0.096 1.715,0.5 2.269,2.508 0.867,-0.125 1.754,-0.252 2.79,-0.402 -0.469,-0.766 -1.003,-1.258 -1.036,-1.779 -0.064,-1.002 -0.769,-1.129 -1.414,-1.455 -0.802,-0.406 -1.571,-0.875 -2.366,-1.324 0.675,-1.236 1.665,-1.986 2.522,-1.633 0.718,0.295 1.053,1.516 1.511,2.25 2.077,-0.869 3.132,0.785 4.148,2.438 0.836,-0.484 1.546,-0.895 2.16,-1.25 -0.195,-1.039 -0.465,-1.951 -0.516,-2.875 -0.074,-1.322 0.792,-1.832 1.946,-1.223 0.478,0.252 0.923,0.564 1.536,0.945 0.061,-0.391 0.216,-0.707 0.125,-0.924 -0.368,-0.877 -0.812,-1.723 -1.3,-2.727 -1.411,-0.148 -2.938,0.148 -4.039,1.676 -0.154,0.213 -0.757,0.342 -0.976,0.213 -0.338,-0.197 -0.721,-0.646 -0.735,-1.004 -0.046,-1.141 0.215,-2.16 1.471,-2.683 1.502,-0.624 2.562,-2.357 4.631,-1.664 0.065,-0.585 0.346,-1.233 0.134,-1.531 -0.638,-0.896 -1.467,-1.655 -2.324,-2.577 -2.123,3.271 -5.24,5.246 -8.016,7.596 -0.777,0.658 -1.606,1.303 -2.216,2.105 -0.76,0.996 -1.634,1.357 -2.846,1.227 -0.65,-0.068 -1.251,-0.15 -1.285,-0.898 -0.035,-0.754 -0.441,-1.518 0.541,-2.195 2.613,-1.801 5.304,-3.416 8.298,-4.497 0.15,-0.056 0.324,-0.268 0.341,-0.422 0.129,-1.197 1.033,-1.889 1.703,-2.746 0.551,-0.703 0.99,-1.494 1.541,-2.341 -0.498,-0.272 -0.854,-0.467 -1.314,-0.718 -0.625,1.449 -0.67,3.141 -2.433,3.702 -1.47,-0.68 -1.147,-2.036 -1.055,-3.265 0.077,-1.009 -0.507,-1.635 -1.478,-1.406 -0.605,0.142 -1.199,0.337 -1.749,0.494 -0.279,1.598 -0.556,3.182 -0.831,4.766 -0.188,1.08 -1.005,1.503 -1.928,1.586 -0.674,0.061 -1.748,-1.342 -1.709,-2.125 0.053,-1.103 0.163,-2.206 0.318,-3.299 0.067,-0.467 0.306,-0.909 0.431,-1.26 -1.182,0.29 -2.274,0.558 -3.315,0.813 0.121,1.236 1.97,2.228 0.328,3.502 -1.937,1.503 -2.945,-0.396 -4.28,-1.283 -0.377,0.327 -0.755,0.652 -1.256,1.084 z M 39.98,141.519 c 0.098,0.17 0.195,0.34 0.292,0.51 0.674,-0.139 1.355,-0.242 2.019,-0.42 12.652,-3.375 25.304,-6.756 37.948,-10.156 0.598,-0.16 1.164,-0.48 1.704,-0.797 0.688,-0.4 0.7,-0.986 0.307,-1.625 -0.557,-0.904 -1.677,-1.328 -2.938,-0.955 -6.599,1.953 -13.226,3.82 -19.768,5.949 -6.128,1.992 -12.166,4.26 -18.228,6.449 -0.505,0.182 -0.893,0.69 -1.336,1.045 z m 70.011,-14.174 c -0.854,0.145 -1.431,0.293 -2.016,0.334 -0.932,0.062 -1.05,0.717 -1.065,1.406 -0.018,0.785 0.504,1.035 1.215,1.16 3.774,0.672 7.545,1.371 11.313,2.074 9.133,1.705 18.301,3.242 27.287,5.656 0.323,0.088 0.707,0.105 1.024,0.018 0.246,-0.068 0.432,-0.355 0.645,-0.545 -0.197,-0.205 -0.359,-0.529 -0.596,-0.598 -4.826,-1.379 -9.628,-2.859 -14.502,-4.051 -6.372,-1.557 -12.805,-2.867 -19.205,-4.316 -1.452,-0.327 -2.874,-0.794 -4.1,-1.138 z m -47.999,33.723 c 0.101,0.115 0.2,0.23 0.301,0.344 0.441,-0.236 0.98,-0.379 1.307,-0.723 2.652,-2.811 5.296,-5.631 7.879,-8.506 2.139,-2.377 4.181,-4.842 6.282,-7.256 1.139,-1.307 2.287,-2.607 3.476,-3.867 1.278,-1.355 2.492,-2.809 3.954,-3.932 1.097,-0.844 1.689,-1.85 2.067,-3.059 0.356,-1.143 -0.448,-1.967 -1.537,-1.496 -0.881,0.377 -1.774,0.945 -2.401,1.658 -2.811,3.199 -5.573,6.441 -8.265,9.74 -2.647,3.244 -5.188,6.576 -7.777,9.865 -0.389,0.494 -0.815,0.959 -1.182,1.467 -1.378,1.915 -2.739,3.843 -4.104,5.765 z M 60.885,93.23 c -0.089,0.171 -0.179,0.342 -0.268,0.513 2.008,2.263 4.002,4.54 6.03,6.785 3.465,3.838 6.957,7.65 10.428,11.483 2.226,2.459 4.412,4.957 6.66,7.396 0.522,0.566 1.173,1.085 1.869,1.395 0.374,0.167 1.034,-0.054 1.433,-0.308 0.186,-0.118 0.192,-0.805 0.036,-1.11 -0.354,-0.694 -0.78,-1.389 -1.318,-1.948 -1.964,-2.048 -4,-4.025 -5.979,-6.056 -3.807,-3.9 -7.581,-7.829 -11.393,-11.724 -1.877,-1.919 -3.776,-3.818 -5.734,-5.654 -0.441,-0.412 -1.168,-0.523 -1.764,-0.772 z m 75.832,60.006 c 0.056,-0.09 0.112,-0.182 0.169,-0.271 -1.388,-1.021 -2.758,-2.07 -4.165,-3.062 -3.681,-2.594 -7.345,-5.215 -11.078,-7.734 -5.302,-3.576 -10.659,-7.072 -15.997,-10.596 -0.194,-0.129 -0.458,-0.312 -0.637,-0.266 -0.29,0.074 -0.749,0.307 -0.759,0.494 -0.031,0.572 -0.028,1.229 0.221,1.723 0.91,1.809 2.584,2.768 4.292,3.705 4.252,2.338 8.576,4.568 12.675,7.152 3.637,2.293 7.065,4.914 10.978,6.764 1.441,0.681 2.868,1.392 4.301,2.091 z M 116.126,87.695 c -0.182,-0.073 -0.363,-0.147 -0.546,-0.22 -0.634,1.035 -1.378,2.02 -1.883,3.115 -2.127,4.621 -4.21,9.264 -6.257,13.921 -1.744,3.97 -3.428,7.968 -5.105,11.968 -0.162,0.384 -0.087,0.868 -0.122,1.306 0.119,0.013 0.238,0.024 0.357,0.036 1.083,-1.292 2.181,-2.573 3.241,-3.885 0.369,-0.456 0.726,-0.952 0.954,-1.487 1.566,-3.659 3.166,-7.307 4.622,-11.01 1.558,-3.96 2.983,-7.972 4.433,-11.973 0.202,-0.554 0.21,-1.179 0.306,-1.771 z m 13.599,20.416 c -0.601,-0.394 -0.792,-0.626 -0.958,-0.608 -0.571,0.06 -1.203,0.079 -1.689,0.34 -4.336,2.333 -8.696,4.631 -12.947,7.114 -2.752,1.606 -5.334,3.505 -7.996,5.268 -0.561,0.371 -0.794,0.888 -0.284,1.363 0.481,0.449 0.834,1.434 1.805,0.852 2.398,-1.438 4.838,-2.818 7.16,-4.371 4.718,-3.156 9.369,-6.413 14.054,-9.619 0.192,-0.134 0.444,-0.18 0.855,-0.339 z M 81.753,135 c -0.757,-1.088 -1.36,-0.338 -1.898,0.078 -1.656,1.279 -3.288,2.592 -4.902,3.924 -2.712,2.238 -5.402,4.506 -8.107,6.758 -0.24,0.199 -0.528,0.34 -0.768,0.541 -2.657,2.242 -5.324,4.475 -7.94,6.764 -0.296,0.26 -0.291,0.861 -0.537,1.662 0.877,-0.246 1.46,-0.268 1.862,-0.549 1.487,-1.041 2.918,-2.162 4.362,-3.264 0.725,-0.551 1.429,-1.129 2.149,-1.684 3.536,-2.717 7.201,-5.281 10.564,-8.197 1.973,-1.709 3.467,-3.973 5.215,-6.033 z m 33.338,23.292 c 0.118,-0.078 0.237,-0.154 0.355,-0.23 -0.411,-1.123 -0.61,-2.396 -1.269,-3.348 -3.431,-4.955 -6.992,-9.82 -10.476,-14.738 -1.097,-1.549 -2.09,-3.17 -3.138,-4.756 -0.469,-0.707 -1.828,-1.322 -2.184,-0.949 -0.709,0.742 -0.296,1.449 0.186,2.127 2.803,3.957 5.571,7.939 8.415,11.869 2.059,2.842 4.194,5.631 6.346,8.404 0.483,0.623 1.173,1.086 1.765,1.621 z M 66.156,112.646 c -0.058,0.13 -0.116,0.261 -0.174,0.391 1.434,1.287 2.812,2.643 4.314,3.844 2.001,1.599 4.082,3.099 6.157,4.603 2.782,2.016 5.589,4 8.396,5.983 0.352,0.246 0.773,0.576 1.15,0.559 0.577,-0.023 1.194,-0.234 1.682,-0.545 0.139,-0.088 -0.051,-0.82 -0.202,-1.213 -0.503,-1.306 -1.649,-1.915 -2.779,-2.605 -5.73,-3.501 -11.421,-7.068 -17.142,-10.586 -0.402,-0.25 -0.932,-0.292 -1.402,-0.431 z m 23.444,3.176 c -0.475,-1.898 -0.784,-3.62 -1.341,-5.261 -1.099,-3.241 -2.314,-6.443 -3.517,-9.648 -0.916,-2.441 -1.869,-4.869 -2.843,-7.287 -0.278,-0.692 -0.66,-1.35 -1.055,-1.987 -0.138,-0.223 -0.454,-0.335 -0.689,-0.497 -0.157,0.251 -0.396,0.485 -0.45,0.757 -0.058,0.291 0.007,0.635 0.109,0.922 0.274,0.771 0.636,1.513 0.896,2.288 2.095,6.242 4.173,12.489 6.256,18.735 0.237,0.712 0.402,1.459 0.733,2.124 0.171,0.343 0.697,0.799 0.954,0.738 0.379,-0.089 0.659,-0.593 0.947,-0.884 z m 48.103,-2.072 c -0.051,-0.101 -0.104,-0.201 -0.154,-0.301 -0.433,0.093 -0.875,0.15 -1.294,0.284 -4.134,1.337 -8.283,2.633 -12.392,4.044 -5.38,1.847 -10.728,3.782 -16.083,5.7 -0.306,0.109 -0.549,0.395 -0.822,0.599 0.05,0.104 0.1,0.207 0.148,0.31 2.667,-0.496 5.448,-0.665 7.979,-1.554 7.117,-2.5 14.134,-5.284 21.176,-7.995 0.54,-0.208 0.964,-0.718 1.442,-1.087 z m -83.328,29.023 c 2.419,0.195 4.467,-0.717 6.54,-1.631 6.114,-2.697 12.254,-5.338 18.379,-8.012 0.235,-0.104 0.418,-0.328 0.626,-0.498 -0.051,-0.096 -0.102,-0.191 -0.152,-0.289 -0.441,0.113 -0.885,0.219 -1.324,0.338 -3.244,0.883 -6.577,1.529 -9.711,2.705 -4.437,1.668 -8.721,3.74 -13.085,5.605 -0.816,0.348 -1.343,0.796 -1.273,1.782 z M 99.129,91.094 c -0.134,0.015 -0.267,0.028 -0.399,0.043 -0.077,0.292 -0.189,0.581 -0.229,0.879 -1.008,7.749 -1.337,15.542 -1.429,23.347 -0.004,0.337 0.21,0.677 0.322,1.017 0.124,-0.02 0.249,-0.038 0.373,-0.057 0.802,-3.639 2.979,-6.97 2.272,-10.949 -0.115,-0.657 -0.051,-1.345 -0.081,-2.017 -0.167,-3.668 -0.328,-7.336 -0.517,-11.003 -0.021,-0.424 -0.203,-0.84 -0.312,-1.26 z m -48.61,30.758 c 0.021,0.137 0.04,0.273 0.062,0.409 0.338,0.09 0.67,0.217 1.014,0.264 9.296,1.259 18.592,2.517 27.892,3.74 0.535,0.069 1.108,-0.157 1.665,-0.246 0.028,-0.125 0.056,-0.251 0.084,-0.377 -1.196,-0.618 -2.349,-1.658 -3.596,-1.788 -8.584,-0.895 -17.187,-1.604 -25.786,-2.342 -0.433,-0.037 -0.89,0.219 -1.335,0.34 z m 54.237,5.521 c 0.035,0.121 0.071,0.244 0.106,0.365 12.52,-2.592 25.039,-5.185 37.559,-7.779 -0.287,-0.254 -0.525,-0.258 -0.757,-0.221 -10.673,1.679 -21.334,3.432 -32.024,4.98 -2.091,0.303 -3.605,1.124 -4.884,2.655 z M 89.223,86.799 c -0.156,0.051 -0.312,0.102 -0.469,0.153 0,0.492 -0.033,0.986 0.006,1.476 0.215,2.724 0.562,5.443 0.648,8.172 0.168,5.3 0.168,10.605 0.297,15.907 0.022,0.931 0.333,1.855 0.51,2.783 0.12,-0.017 0.239,-0.033 0.359,-0.05 0.134,-0.929 0.298,-1.854 0.395,-2.786 0.262,-2.514 0.728,-5.035 0.679,-7.545 -0.06,-3.159 -0.521,-6.312 -0.859,-9.462 C 90.52,92.938 90.2,90.435 89.847,87.938 89.789,87.537 89.438,87.177 89.223,86.799 z m -2.643,51.585 c -0.649,-0.916 -1.235,-0.607 -1.751,0.02 -1.403,1.703 -2.827,3.395 -4.161,5.152 -2.426,3.197 -4.808,6.428 -7.175,9.668 -0.428,0.584 -0.741,1.277 -0.252,2.037 1.855,-1.072 11.259,-12.988 13.339,-16.877 z m 0.521,-21.868 c -0.065,-0.252 -0.088,-0.412 -0.149,-0.556 -0.759,-1.8 -1.359,-3.691 -2.325,-5.373 -1.603,-2.793 -3.425,-5.462 -5.201,-8.152 -0.199,-0.302 -0.701,-0.405 -1.062,-0.601 -0.09,0.417 -0.326,0.866 -0.24,1.241 0.168,0.722 0.449,1.438 0.803,2.091 1.59,2.943 3.166,5.899 4.868,8.777 0.631,1.065 1.586,1.941 2.423,2.875 0.104,0.114 0.422,0.116 0.604,0.058 0.134,-0.043 0.212,-0.268 0.279,-0.36 z m 6.301,35.417 c 0.147,0.029 0.294,0.061 0.442,0.092 0.397,-0.729 1.136,-1.457 1.138,-2.188 0.004,-3.98 -0.171,-7.959 -0.292,-11.939 -0.025,-0.805 -0.062,-1.805 -1.124,-1.672 -0.362,0.045 -0.852,1.166 -0.838,1.785 0.093,4.311 0.299,8.619 0.481,12.93 0.015,0.332 0.126,0.66 0.193,0.992 z m 0.223,-49.671 c 0.065,-0.147 -0.022,-0.021 -0.048,0.117 -1.035,5.799 -2.075,11.599 -3.083,17.402 -0.106,0.613 -0.144,1.293 0.013,1.882 0.114,0.43 0.619,1.077 0.914,1.059 0.418,-0.026 0.995,-0.502 1.157,-0.921 0.322,-0.831 0.512,-1.746 0.573,-2.64 0.202,-2.959 0.377,-5.923 0.458,-8.887 0.076,-2.752 0.016,-5.507 0.016,-8.012 z m 4.891,18.592 c 0.602,-1.249 1.236,-2.225 1.557,-3.296 1.418,-4.736 2.741,-9.503 4.115,-14.255 0.186,-0.644 0.461,-1.261 0.694,-1.891 -0.111,-0.081 -0.224,-0.162 -0.335,-0.243 -0.263,0.289 -0.625,0.535 -0.771,0.874 -0.722,1.67 -1.443,3.344 -2.057,5.055 -1.251,3.488 -2.457,6.994 -3.624,10.512 -0.316,0.953 -0.483,1.98 0.421,3.244 z m 15.91,25.087 c -2.678,-2.365 -5.267,-4.648 -7.851,-6.936 -0.822,-0.729 -1.671,-1.434 -2.438,-2.219 -0.614,-0.629 -1.098,-0.562 -1.646,0.006 2.124,3.594 9.41,9.196 11.935,9.149 z m -26.343,-7.104 c -0.101,-0.102 -0.202,-0.201 -0.304,-0.303 -0.282,0.311 -0.664,0.576 -0.828,0.939 -0.488,1.08 -0.854,2.217 -1.333,3.301 -0.809,1.834 -1.733,3.623 -2.474,5.482 -0.274,0.691 -0.418,1.625 0.742,2.061 1.947,-3.679 4.031,-7.222 4.197,-11.48 z m 10.728,-14.094 c -0.137,-0.163 -0.274,-0.326 -0.412,-0.49 -2.456,1.457 -4.919,2.903 -7.363,4.377 -0.814,0.49 -0.887,1.424 -0.319,1.898 0.378,0.316 1.527,0.217 1.978,-0.141 1.872,-1.49 3.617,-3.145 5.394,-4.754 0.28,-0.253 0.483,-0.59 0.722,-0.89 z m -8.958,12.378 c -0.186,0.039 -0.372,0.078 -0.558,0.115 -1.115,3.268 -0.92,6.682 -0.949,10.115 0.532,-0.473 1.084,-0.973 1.188,-1.555 0.423,-2.35 0.76,-4.721 1,-7.096 0.051,-0.497 -0.439,-1.052 -0.681,-1.579 z m 17.441,-20.765 c -2.743,1.21 -4.982,2.978 -6.717,5.337 -0.505,0.688 -0.969,1.405 -0.582,2.526 2.53,-2.724 4.915,-5.294 7.299,-7.863 z m -2.897,0.415 c 2.62,-0.625 6.221,-4.87 5.997,-7.309 -2.076,2.529 -4,4.874 -5.997,7.309 z m -7.365,21.775 c -0.112,0.094 -0.225,0.189 -0.337,0.283 0.543,2.781 1.087,5.562 1.675,8.57 0.327,-0.34 0.426,-0.398 0.421,-0.443 -0.309,-2.627 -0.609,-5.254 -0.976,-7.873 -0.028,-0.21 -0.512,-0.359 -0.783,-0.537 z m 8.619,-13.122 c -0.03,-0.122 -0.061,-0.243 -0.09,-0.365 -0.483,0.142 -1.008,0.207 -1.441,0.441 -0.834,0.451 -1.588,1.056 -2.431,1.486 -0.778,0.398 -0.877,1.064 -0.914,1.781 -0.009,0.191 0.127,0.439 0.277,0.566 0.07,0.062 0.373,-0.055 0.5,-0.17 1.374,-1.238 2.735,-2.49 4.099,-3.739 z m -10.39,-9.209 c -0.34,-2.456 -0.664,-4.797 -0.987,-7.138 -0.076,0.003 -0.151,0.006 -0.227,0.009 -0.117,2.373 -0.234,4.747 -0.353,7.124 0.302,0.072 0.451,0.141 0.601,0.138 0.231,-0.005 0.461,-0.061 0.966,-0.133 z m -17.94,6.855 c 0.026,-0.15 0.054,-0.301 0.079,-0.451 -2.714,-0.129 -5.356,-1.052 -8.137,-0.44 2.687,0.298 5.372,0.594 8.058,0.891 z m 17.084,9.68 c 0.962,0.529 1.581,0.869 2.199,1.211 0.12,-0.088 0.241,-0.176 0.362,-0.262 -0.228,-0.514 -0.329,-1.242 -0.722,-1.471 -0.309,-0.182 -0.977,0.25 -1.839,0.522 z"
   id="path7"
   style="fill:#231f20;fill-rule:evenodd;stroke:#231f20;stroke-miterlimit:10" />
	<path
   d="m 81.839,120.932 c 0.501,-0.432 0.879,-0.757 1.258,-1.084 1.335,0.887 2.344,2.786 4.28,1.283 1.642,-1.274 -0.207,-2.266 -0.328,-3.502 1.041,-0.256 2.134,-0.523 3.315,-0.813 -0.125,0.351 -0.363,0.793 -0.431,1.26 -0.155,1.093 -0.266,2.196 -0.318,3.299 -0.039,0.783 1.035,2.186 1.709,2.125 0.923,-0.083 1.74,-0.506 1.928,-1.586 0.275,-1.584 0.552,-3.168 0.831,-4.766 0.55,-0.157 1.144,-0.353 1.749,-0.494 0.971,-0.229 1.555,0.397 1.478,1.406 -0.093,1.229 -0.415,2.585 1.055,3.265 1.763,-0.562 1.808,-2.253 2.433,-3.702 0.46,0.251 0.816,0.445 1.314,0.718 -0.551,0.847 -0.99,1.638 -1.541,2.341 -0.67,0.857 -1.574,1.549 -1.703,2.746 -0.017,0.154 -0.19,0.366 -0.341,0.422 -2.994,1.081 -5.685,2.696 -8.298,4.497 -0.982,0.678 -0.576,1.441 -0.541,2.195 0.034,0.748 0.635,0.83 1.285,0.898 1.212,0.131 2.086,-0.23 2.846,-1.227 0.609,-0.803 1.438,-1.447 2.216,-2.105 2.775,-2.35 5.893,-4.326 8.016,-7.596 0.857,0.922 1.687,1.682 2.324,2.577 0.212,0.298 -0.068,0.946 -0.134,1.531 -2.069,-0.693 -3.129,1.04 -4.631,1.664 -1.256,0.523 -1.517,1.542 -1.471,2.683 0.015,0.357 0.397,0.807 0.735,1.004 0.219,0.129 0.821,0 0.976,-0.213 1.102,-1.527 2.628,-1.824 4.039,-1.676 0.487,1.004 0.932,1.85 1.3,2.727 0.091,0.217 -0.064,0.533 -0.125,0.924 -0.613,-0.381 -1.059,-0.693 -1.536,-0.945 -1.154,-0.609 -2.021,-0.1 -1.946,1.223 0.051,0.924 0.32,1.836 0.516,2.875 -0.614,0.355 -1.324,0.766 -2.16,1.25 -1.017,-1.652 -2.071,-3.307 -4.148,-2.438 -0.458,-0.734 -0.793,-1.955 -1.511,-2.25 -0.857,-0.354 -1.848,0.396 -2.522,1.633 0.795,0.449 1.564,0.918 2.366,1.324 0.646,0.326 1.35,0.453 1.414,1.455 0.033,0.521 0.567,1.014 1.036,1.779 -1.036,0.15 -1.923,0.277 -2.79,0.402 -0.554,-2.008 -1.072,-2.604 -2.269,-2.508 -1.56,0.125 -1.233,1.541 -1.682,2.703 -0.764,-0.705 -1.478,-1.361 -2.188,-2.016 -2.153,1.92 -2.153,1.92 -3.219,1.064 0.448,-0.904 0.873,-1.82 1.35,-2.707 0.547,-1.02 0.21,-2.107 -0.527,-2.535 -0.601,-0.348 -1.76,-0.086 -2.505,0.262 -0.901,0.42 -1.627,1.217 -2.639,2.018 -0.489,-0.607 -1.041,-1.293 -1.606,-1.994 1.173,-0.936 2.916,-1.094 2.571,-2.873 -0.365,-1.883 -1.922,-2.156 -3.518,-2.318 0.736,-0.246 1.462,-0.533 2.214,-0.713 0.247,-0.06 0.598,0.104 0.838,0.26 0.763,0.5 1.49,1.049 2.241,1.564 0.895,0.613 1.846,0.672 2.805,0.176 0.922,-0.477 1.088,-1.215 0.62,-2.118 -0.73,-1.413 -1.718,-2.481 -3.196,-3.192 -1.118,-0.538 -2.084,-1.39 -3.234,-2.182 z"
   id="path9"
   style="fill:#231f20;fill-rule:evenodd;stroke:#231f20;stroke-miterlimit:10" />
	<path
   d="m 39.98,141.519 c 0.443,-0.355 0.831,-0.863 1.336,-1.045 6.062,-2.189 12.1,-4.457 18.228,-6.449 6.542,-2.129 13.169,-3.996 19.768,-5.949 1.262,-0.373 2.382,0.051 2.938,0.955 0.394,0.639 0.381,1.225 -0.307,1.625 -0.54,0.316 -1.106,0.637 -1.704,0.797 -12.645,3.4 -25.296,6.781 -37.948,10.156 -0.663,0.178 -1.345,0.281 -2.019,0.42 -0.097,-0.17 -0.194,-0.34 -0.292,-0.51 z"
   id="path11"
   style="fill:#231f20;fill-rule:evenodd;stroke:#231f20;stroke-miterlimit:10" />
	<path
   d="m 109.991,127.345 c 1.227,0.344 2.648,0.811 4.101,1.139 6.4,1.449 12.833,2.76 19.205,4.316 4.874,1.191 9.676,2.672 14.502,4.051 0.236,0.068 0.398,0.393 0.596,0.598 -0.213,0.189 -0.398,0.477 -0.645,0.545 -0.317,0.088 -0.701,0.07 -1.024,-0.018 -8.986,-2.414 -18.154,-3.951 -27.287,-5.656 -3.769,-0.703 -7.539,-1.402 -11.313,-2.074 -0.711,-0.125 -1.232,-0.375 -1.215,-1.16 0.016,-0.689 0.134,-1.344 1.065,-1.406 0.584,-0.042 1.161,-0.19 2.015,-0.335 z"
   id="path13"
   style="fill:#231f20;fill-rule:evenodd;stroke:#231f20;stroke-miterlimit:10" />
	<path
   d="m 61.992,161.068 c 1.365,-1.922 2.727,-3.85 4.104,-5.764 0.366,-0.508 0.793,-0.973 1.182,-1.467 2.589,-3.289 5.13,-6.621 7.777,-9.865 2.691,-3.299 5.454,-6.541 8.265,-9.74 0.627,-0.713 1.521,-1.281 2.401,-1.658 1.089,-0.471 1.894,0.354 1.537,1.496 -0.378,1.209 -0.971,2.215 -2.067,3.059 -1.462,1.123 -2.676,2.576 -3.954,3.932 -1.188,1.26 -2.337,2.561 -3.476,3.867 -2.102,2.414 -4.144,4.879 -6.282,7.256 -2.583,2.875 -5.227,5.695 -7.879,8.506 -0.326,0.344 -0.865,0.486 -1.307,0.723 -0.101,-0.115 -0.201,-0.23 -0.301,-0.345 z"
   id="path15"
   style="fill:#231f20;fill-rule:evenodd;stroke:#231f20;stroke-miterlimit:10" />
	<path
   d="m 60.885,93.23 c 0.596,0.249 1.323,0.359 1.764,0.772 1.958,1.836 3.857,3.735 5.734,5.654 3.812,3.895 7.586,7.823 11.393,11.724 1.979,2.03 4.016,4.008 5.979,6.056 0.538,0.56 0.964,1.254 1.318,1.948 0.156,0.306 0.149,0.992 -0.036,1.11 -0.398,0.254 -1.059,0.475 -1.433,0.308 -0.696,-0.31 -1.347,-0.828 -1.869,-1.395 -2.248,-2.439 -4.435,-4.938 -6.66,-7.396 -3.471,-3.833 -6.963,-7.646 -10.428,-11.483 -2.028,-2.245 -4.022,-4.522 -6.03,-6.785 0.09,-0.171 0.179,-0.342 0.268,-0.513 z"
   id="path17"
   style="fill:#231f20;fill-rule:evenodd;stroke:#231f20;stroke-miterlimit:10" />
	<path
   d="m 136.717,153.236 c -1.434,-0.699 -2.86,-1.41 -4.302,-2.092 -3.912,-1.85 -7.341,-4.471 -10.978,-6.764 -4.099,-2.584 -8.423,-4.814 -12.675,-7.152 -1.708,-0.938 -3.382,-1.896 -4.292,-3.705 -0.249,-0.494 -0.252,-1.15 -0.221,-1.723 0.01,-0.188 0.469,-0.42 0.759,-0.494 0.179,-0.047 0.442,0.137 0.637,0.266 5.338,3.523 10.695,7.02 15.997,10.596 3.733,2.52 7.397,5.141 11.078,7.734 1.407,0.992 2.777,2.041 4.165,3.062 -0.055,0.09 -0.112,0.182 -0.168,0.272 z"
   id="path19"
   style="fill:#231f20;fill-rule:evenodd;stroke:#231f20;stroke-miterlimit:10" />
	<path
   d="m 116.126,87.695 c -0.097,0.592 -0.104,1.217 -0.306,1.771 -1.449,4.001 -2.875,8.013 -4.433,11.973 -1.456,3.703 -3.056,7.351 -4.622,11.01 -0.229,0.535 -0.585,1.031 -0.954,1.487 -1.061,1.312 -2.158,2.593 -3.241,3.885 -0.119,-0.012 -0.238,-0.023 -0.357,-0.036 0.035,-0.438 -0.04,-0.922 0.122,-1.306 1.678,-4 3.361,-7.998 5.105,-11.968 2.047,-4.657 4.13,-9.3 6.257,-13.921 0.505,-1.096 1.249,-2.08 1.883,-3.115 0.183,0.073 0.365,0.147 0.546,0.22 z"
   id="path21"
   style="fill:#231f20;fill-rule:evenodd;stroke:#231f20;stroke-miterlimit:10" />
	<path
   d="m 129.725,108.111 c -0.411,0.158 -0.663,0.205 -0.856,0.338 -4.685,3.206 -9.336,6.463 -14.054,9.619 -2.322,1.553 -4.762,2.933 -7.16,4.371 -0.971,0.582 -1.323,-0.402 -1.805,-0.852 -0.51,-0.476 -0.276,-0.992 0.284,-1.363 2.662,-1.763 5.244,-3.661 7.996,-5.268 4.251,-2.483 8.611,-4.781 12.947,-7.114 0.486,-0.261 1.118,-0.28 1.689,-0.34 0.167,-0.017 0.359,0.216 0.959,0.609 z"
   id="path23"
   style="fill:#231f20;fill-rule:evenodd;stroke:#231f20;stroke-miterlimit:10" />
	<path
   d="m 81.753,135 c -1.748,2.061 -3.242,4.324 -5.215,6.033 -3.363,2.916 -7.028,5.48 -10.564,8.197 -0.721,0.555 -1.425,1.133 -2.149,1.684 -1.444,1.102 -2.875,2.223 -4.362,3.264 -0.402,0.281 -0.985,0.303 -1.862,0.549 0.246,-0.801 0.241,-1.402 0.537,-1.662 2.616,-2.289 5.283,-4.521 7.94,-6.764 0.239,-0.201 0.527,-0.342 0.768,-0.541 2.705,-2.252 5.396,-4.52 8.107,-6.758 1.614,-1.332 3.246,-2.645 4.902,-3.924 0.538,-0.416 1.142,-1.166 1.898,-0.078 z"
   id="path25"
   style="fill:#231f20;fill-rule:evenodd;stroke:#231f20;stroke-miterlimit:10" />
	<path
   d="m 115.091,158.292 c -0.593,-0.535 -1.282,-0.998 -1.764,-1.621 -2.151,-2.773 -4.287,-5.562 -6.346,-8.404 -2.844,-3.93 -5.612,-7.912 -8.415,-11.869 -0.481,-0.678 -0.895,-1.385 -0.186,-2.127 0.355,-0.373 1.715,0.242 2.184,0.949 1.048,1.586 2.041,3.207 3.138,4.756 3.483,4.918 7.045,9.783 10.476,14.738 0.658,0.951 0.857,2.225 1.269,3.348 -0.118,0.076 -0.238,0.152 -0.356,0.23 z"
   id="path27"
   style="fill:#231f20;fill-rule:evenodd;stroke:#231f20;stroke-miterlimit:10" />
	<path
   d="m 66.156,112.646 c 0.471,0.139 1,0.181 1.402,0.429 5.721,3.518 11.411,7.085 17.142,10.586 1.13,0.69 2.276,1.3 2.779,2.605 0.151,0.393 0.341,1.125 0.202,1.213 -0.487,0.311 -1.104,0.521 -1.682,0.545 -0.377,0.018 -0.799,-0.312 -1.15,-0.559 -2.807,-1.983 -5.613,-3.967 -8.396,-5.983 -2.075,-1.504 -4.156,-3.004 -6.157,-4.603 -1.503,-1.201 -2.881,-2.557 -4.314,-3.844 0.058,-0.128 0.116,-0.259 0.174,-0.389 z"
   id="path29"
   style="fill:#231f20;fill-rule:evenodd;stroke:#231f20;stroke-miterlimit:10" />
	<path
   d="m 89.6,115.822 c -0.288,0.291 -0.568,0.795 -0.946,0.884 -0.257,0.061 -0.783,-0.396 -0.954,-0.738 -0.331,-0.665 -0.496,-1.412 -0.733,-2.124 -2.083,-6.246 -4.161,-12.493 -6.256,-18.735 -0.26,-0.775 -0.621,-1.517 -0.896,-2.288 -0.103,-0.287 -0.167,-0.631 -0.109,-0.922 0.055,-0.271 0.293,-0.506 0.45,-0.757 0.235,0.162 0.552,0.274 0.689,0.497 0.395,0.638 0.776,1.295 1.055,1.987 0.974,2.418 1.927,4.846 2.843,7.287 1.202,3.205 2.418,6.407 3.517,9.648 0.556,1.641 0.865,3.363 1.34,5.261 z"
   id="path31"
   style="fill:#231f20;fill-rule:evenodd;stroke:#231f20;stroke-miterlimit:10" />
	<path
   d="m 137.703,113.75 c -0.478,0.369 -0.901,0.879 -1.442,1.087 -7.042,2.711 -14.059,5.495 -21.176,7.995 -2.53,0.889 -5.312,1.058 -7.979,1.554 -0.049,-0.103 -0.099,-0.206 -0.148,-0.31 0.273,-0.204 0.517,-0.489 0.822,-0.599 5.355,-1.918 10.703,-3.854 16.083,-5.7 4.108,-1.411 8.258,-2.707 12.392,-4.044 0.419,-0.134 0.861,-0.191 1.294,-0.284 0.05,0.1 0.103,0.2 0.154,0.301 z"
   id="path33"
   style="fill:#231f20;fill-rule:evenodd;stroke:#231f20;stroke-miterlimit:10" />
	<path
   d="m 54.375,142.773 c -0.069,-0.986 0.457,-1.434 1.272,-1.781 4.364,-1.865 8.648,-3.938 13.085,-5.605 3.134,-1.176 6.467,-1.822 9.711,-2.705 0.439,-0.119 0.883,-0.225 1.324,-0.338 0.051,0.098 0.102,0.193 0.152,0.289 -0.208,0.17 -0.391,0.395 -0.626,0.498 -6.125,2.674 -12.265,5.314 -18.379,8.012 -2.073,0.913 -4.121,1.825 -6.539,1.63 z"
   id="path35"
   style="fill:#231f20;fill-rule:evenodd;stroke:#231f20;stroke-miterlimit:10" />
	<path
   d="m 99.129,91.094 c 0.108,0.42 0.291,0.836 0.313,1.26 0.188,3.667 0.35,7.335 0.517,11.003 0.03,0.672 -0.034,1.359 0.081,2.017 0.706,3.979 -1.471,7.311 -2.272,10.949 -0.124,0.019 -0.249,0.037 -0.373,0.057 -0.112,-0.34 -0.326,-0.68 -0.322,-1.017 0.092,-7.805 0.421,-15.598 1.429,-23.347 0.039,-0.298 0.151,-0.587 0.229,-0.879 0.132,-0.015 0.265,-0.029 0.398,-0.043 z"
   id="path37"
   style="fill:#231f20;fill-rule:evenodd;stroke:#231f20;stroke-miterlimit:10" />
	<path
   d="m 50.519,121.852 c 0.445,-0.12 0.902,-0.377 1.334,-0.34 8.6,0.737 17.202,1.447 25.786,2.342 1.247,0.13 2.399,1.17 3.596,1.788 -0.028,0.126 -0.056,0.252 -0.084,0.377 -0.557,0.089 -1.13,0.315 -1.665,0.246 -9.3,-1.224 -18.596,-2.481 -27.892,-3.74 -0.344,-0.047 -0.676,-0.174 -1.014,-0.264 -0.021,-0.136 -0.04,-0.273 -0.061,-0.409 z"
   id="path39"
   style="fill:#231f20;fill-rule:evenodd;stroke:#231f20;stroke-miterlimit:10" />
	<path
   d="m 104.756,127.373 c 1.278,-1.531 2.793,-2.351 4.884,-2.654 10.69,-1.549 21.352,-3.302 32.024,-4.98 0.231,-0.037 0.47,-0.033 0.757,0.221 -12.52,2.594 -25.039,5.187 -37.559,7.779 -0.034,-0.122 -0.07,-0.245 -0.106,-0.366 z"
   id="path41"
   style="fill:#231f20;fill-rule:evenodd;stroke:#231f20;stroke-miterlimit:10" />
	<path
   d="m 89.223,86.799 c 0.215,0.378 0.565,0.738 0.623,1.14 0.354,2.497 0.674,5 0.942,7.509 0.338,3.15 0.8,6.303 0.859,9.462 0.049,2.51 -0.417,5.031 -0.679,7.545 -0.097,0.933 -0.261,1.857 -0.395,2.786 -0.12,0.017 -0.239,0.033 -0.359,0.05 -0.177,-0.928 -0.487,-1.853 -0.51,-2.783 -0.129,-5.302 -0.129,-10.607 -0.297,-15.907 -0.086,-2.729 -0.434,-5.448 -0.648,-8.172 -0.039,-0.489 -0.006,-0.983 -0.006,-1.476 0.158,-0.053 0.314,-0.103 0.47,-0.154 z"
   id="path43"
   style="fill:#231f20;fill-rule:evenodd;stroke:#231f20;stroke-miterlimit:10" />
	<path
   d="m 86.58,138.384 c -2.079,3.889 -11.483,15.805 -13.339,16.877 -0.489,-0.76 -0.176,-1.453 0.252,-2.037 2.367,-3.24 4.749,-6.471 7.175,-9.668 1.334,-1.758 2.758,-3.449 4.161,-5.152 0.515,-0.627 1.101,-0.936 1.751,-0.02 z"
   id="path45"
   style="fill:#231f20;fill-rule:evenodd;stroke:#231f20;stroke-miterlimit:10" />
	<path
   d="m 87.101,116.516 c -0.067,0.093 -0.146,0.317 -0.281,0.36 -0.182,0.059 -0.499,0.057 -0.604,-0.058 -0.837,-0.934 -1.792,-1.81 -2.423,-2.875 -1.702,-2.878 -3.278,-5.834 -4.868,-8.777 -0.354,-0.653 -0.635,-1.369 -0.803,-2.091 -0.086,-0.375 0.15,-0.824 0.24,-1.241 0.361,0.195 0.863,0.299 1.062,0.601 1.776,2.69 3.599,5.359 5.201,8.152 0.966,1.682 1.566,3.573 2.325,5.373 0.063,0.144 0.086,0.304 0.151,0.556 z"
   id="path47"
   style="fill:#231f20;fill-rule:evenodd;stroke:#231f20;stroke-miterlimit:10" />
	<path
   d="m 93.402,151.933 c -0.066,-0.332 -0.178,-0.66 -0.192,-0.992 -0.183,-4.311 -0.389,-8.619 -0.481,-12.93 -0.014,-0.619 0.476,-1.74 0.838,-1.785 1.062,-0.133 1.099,0.867 1.124,1.672 0.121,3.98 0.296,7.959 0.292,11.939 -0.002,0.73 -0.74,1.459 -1.138,2.188 -0.149,-0.031 -0.296,-0.063 -0.443,-0.092 z"
   id="path49"
   style="fill:#231f20;fill-rule:evenodd;stroke:#231f20;stroke-miterlimit:10" />
	<path
   d="m 93.625,102.262 c 0,2.505 0.06,5.261 -0.016,8.013 -0.081,2.964 -0.256,5.928 -0.458,8.887 -0.062,0.894 -0.251,1.809 -0.573,2.64 -0.162,0.419 -0.739,0.895 -1.157,0.921 -0.295,0.019 -0.8,-0.629 -0.914,-1.059 -0.156,-0.589 -0.119,-1.269 -0.013,-1.882 1.008,-5.804 2.048,-11.604 3.083,-17.402 0.026,-0.139 0.114,-0.266 0.048,-0.118 z"
   id="path51"
   style="fill:#231f20;fill-rule:evenodd;stroke:#231f20;stroke-miterlimit:10" />
	<path
   d="m 98.516,120.854 c -0.904,-1.265 -0.737,-2.291 -0.421,-3.244 1.167,-3.518 2.373,-7.023 3.624,-10.512 0.613,-1.711 1.335,-3.385 2.057,-5.055 0.146,-0.339 0.509,-0.585 0.771,-0.874 0.111,0.081 0.224,0.162 0.335,0.243 -0.233,0.63 -0.509,1.247 -0.694,1.891 -1.374,4.752 -2.697,9.519 -4.115,14.255 -0.321,1.072 -0.955,2.047 -1.557,3.296 z"
   id="path53"
   style="fill:#231f20;fill-rule:evenodd;stroke:#231f20;stroke-miterlimit:10" />
	<path
   d="m 114.426,145.941 c -2.525,0.047 -9.812,-5.555 -11.934,-9.148 0.548,-0.568 1.031,-0.635 1.646,-0.006 0.767,0.785 1.615,1.49 2.438,2.219 2.584,2.286 5.173,4.57 7.85,6.935 z"
   id="path55"
   style="fill:#231f20;fill-rule:evenodd;stroke:#231f20;stroke-miterlimit:10" />
	<path
   d="m 88.083,138.837 c -0.166,4.258 -2.249,7.801 -4.196,11.48 -1.16,-0.436 -1.017,-1.369 -0.742,-2.061 0.74,-1.859 1.665,-3.648 2.474,-5.482 0.479,-1.084 0.845,-2.221 1.333,-3.301 0.164,-0.363 0.546,-0.629 0.828,-0.939 0.1,0.102 0.202,0.202 0.303,0.303 z"
   id="path57"
   style="fill:#231f20;fill-rule:evenodd;stroke:#231f20;stroke-miterlimit:10" />
	<path
   d="m 98.811,124.743 c -0.239,0.3 -0.442,0.637 -0.724,0.891 -1.776,1.61 -3.521,3.264 -5.394,4.754 -0.45,0.357 -1.6,0.457 -1.978,0.141 -0.567,-0.475 -0.495,-1.408 0.319,-1.898 2.444,-1.475 4.907,-2.92 7.363,-4.377 0.14,0.163 0.277,0.326 0.414,0.489 z"
   id="path59"
   style="fill:#231f20;fill-rule:evenodd;stroke:#231f20;stroke-miterlimit:10" />
	<path
   d="m 89.853,137.121 c 0.242,0.527 0.732,1.082 0.682,1.58 -0.24,2.375 -0.577,4.746 -1,7.096 -0.104,0.582 -0.656,1.082 -1.188,1.555 0.029,-3.434 -0.166,-6.848 0.949,-10.115 0.185,-0.038 0.371,-0.077 0.557,-0.116 z"
   id="path61"
   style="fill:#231f20;fill-rule:evenodd;stroke:#231f20;stroke-miterlimit:10" />
	<path
   d="m 107.294,116.356 c -2.385,2.568 -4.77,5.139 -7.299,7.863 -0.387,-1.121 0.077,-1.839 0.582,-2.526 1.735,-2.359 3.974,-4.127 6.717,-5.337 z"
   id="path63"
   style="fill:#231f20;fill-rule:evenodd;stroke:#231f20;stroke-miterlimit:10" />
	<path
   d="m 104.397,116.771 c 1.997,-2.435 3.921,-4.779 5.997,-7.309 0.224,2.438 -3.377,6.684 -5.997,7.309 z"
   id="path65"
   style="fill:#231f20;fill-rule:evenodd;stroke:#231f20;stroke-miterlimit:10" />
	<path
   d="m 97.032,138.546 c 0.271,0.178 0.755,0.326 0.783,0.537 0.366,2.619 0.667,5.246 0.976,7.873 0.005,0.045 -0.094,0.104 -0.421,0.443 -0.588,-3.008 -1.132,-5.789 -1.675,-8.57 0.112,-0.093 0.224,-0.189 0.337,-0.283 z"
   id="path67"
   style="fill:#231f20;fill-rule:evenodd;stroke:#231f20;stroke-miterlimit:10" />
	<path
   d="m 105.651,125.424 c -1.364,1.25 -2.725,2.501 -4.099,3.74 -0.127,0.115 -0.43,0.232 -0.5,0.17 -0.15,-0.127 -0.286,-0.375 -0.277,-0.566 0.037,-0.717 0.136,-1.383 0.914,-1.781 0.843,-0.43 1.597,-1.035 2.431,-1.486 0.434,-0.234 0.958,-0.3 1.441,-0.441 0.029,0.121 0.06,0.242 0.09,0.364 z"
   id="path69"
   style="fill:#231f20;fill-rule:evenodd;stroke:#231f20;stroke-miterlimit:10" />
	<path
   d="m 95.261,116.215 c -0.505,0.072 -0.735,0.128 -0.966,0.133 -0.149,0.003 -0.299,-0.065 -0.601,-0.138 0.118,-2.377 0.235,-4.751 0.353,-7.124 0.075,-0.003 0.15,-0.006 0.227,-0.009 0.323,2.341 0.647,4.682 0.987,7.138 z"
   id="path71"
   style="fill:#231f20;fill-rule:evenodd;stroke:#231f20;stroke-miterlimit:10" />
	<path
   d="m 77.321,123.07 c -2.686,-0.297 -5.371,-0.594 -8.058,-0.892 2.78,-0.611 5.423,0.312 8.137,0.44 -0.025,0.152 -0.053,0.302 -0.079,0.452 z"
   id="path73"
   style="fill:#231f20;fill-rule:evenodd;stroke:#231f20;stroke-miterlimit:10" />
	<path
   d="m 94.405,132.75 c 0.862,-0.271 1.53,-0.703 1.84,-0.521 0.393,0.229 0.494,0.957 0.722,1.471 -0.121,0.086 -0.242,0.174 -0.362,0.262 -0.619,-0.343 -1.238,-0.683 -2.2,-1.212 z"
   id="path75"
   style="fill:#231f20;fill-rule:evenodd;stroke:#231f20;stroke-miterlimit:10" />
</g>
</svg>